ply
format ascii 1.0
element vertex 1000
property float x
property float y
property float z
end_header
200.0 545.0 18.039216995239258
407.0 179.0 40.0
310.0 312.0 16.47058868408203
182.0 616.0 35.686275482177734
602.0 649.0 86.66666412353516
179.0 693.0 10.980392456054688
249.0 438.0 17.647058486938477
579.0 666.0 91.76470947265625
262.0 431.0 5.098039150238037
345.0 205.0 47.05882263183594
375.0 346.0 47.843135833740234
303.0 632.0 54.11764907836914
461.0 646.0 66.2745132446289
609.0 645.0 83.13725280761719
558.0 667.0 93.72549438476562
416.0 181.0 39.607845306396484
405.0 233.0 45.882354736328125
535.0 444.0 50.98039627075195
602.0 647.0 86.2745132446289
587.0 695.0 93.33333587646484
518.0 667.0 92.94117736816406
240.0 789.0 32.94117736816406
262.0 549.0 51.76470947265625
386.0 249.0 46.27450942993164
278.0 619.0 58.82353210449219
566.0 653.0 91.37255096435547
200.0 554.0 51.76470947265625
204.0 514.0 8.235294342041016
332.0 241.0 45.09803771972656
220.0 656.0 75.686279296875
392.0 645.0 60.000003814697266
356.0 186.0 43.52941131591797
403.0 187.0 43.52941131591797
544.0 647.0 90.19607543945312
409.0 185.0 42.352943420410156
308.0 689.0 79.21569061279297
349.0 422.0 34.11764907836914
261.0 547.0 51.37255096435547
515.0 663.0 92.1568603515625
309.0 213.0 41.960784912109375
533.0 687.0 95.68627166748047
525.0 554.0 67.8431396484375
389.0 649.0 74.50980377197266
781.0 794.0 25.098041534423828
363.0 188.0 44.313724517822266
195.0 765.0 16.078432083129883
545.0 421.0 25.098041534423828
606.0 592.0 57.64706039428711
313.0 203.0 41.568626403808594
309.0 199.0 39.2156867980957
518.0 550.0 64.31372833251953
220.0 676.0 80.0
377.0 254.0 45.882354736328125
614.0 608.0 51.76470947265625
580.0 618.0 83.92156982421875
352.0 208.0 47.843135833740234
440.0 193.0 36.86274719238281
315.0 343.0 20.0
563.0 752.0 70.98039245605469
510.0 569.0 69.4117660522461
425.0 251.0 42.352943420410156
556.0 626.0 86.66666412353516
615.0 647.0 75.29412078857422
567.0 777.0 56.078433990478516
327.0 360.0 4.705882549285889
508.0 624.0 78.03921508789062
380.0 168.0 18.039216995239258
432.0 198.0 41.568626403808594
406.0 267.0 45.09803771972656
531.0 581.0 74.90196228027344
401.0 204.0 45.490196228027344
480.0 404.0 16.47058868408203
584.0 668.0 91.37255096435547
381.0 202.0 47.05882263183594
203.0 554.0 52.94117736816406
465.0 289.0 34.11764907836914
618.0 639.0 72.94117736816406
412.0 233.0 44.313724517822266
397.0 267.0 45.490196228027344
383.0 226.0 47.843135833740234
283.0 424.0 14.509804725646973
262.0 507.0 46.66666793823242
390.0 331.0 47.45098114013672
591.0 509.0 39.2156867980957
539.0 567.0 73.33333587646484
586.0 622.0 84.31372833251953
327.0 658.0 78.82353210449219
218.0 481.0 13.333333969116211
272.0 597.0 57.254905700683594
589.0 624.0 84.70588684082031
181.0 712.0 18.039216995239258
394.0 265.0 45.490196228027344
315.0 344.0 10.588235855102539
413.0 191.0 43.52941131591797
399.0 375.0 47.05882263183594
618.0 663.0 78.03921508789062
357.0 311.0 44.313724517822266
568.0 785.0 39.607845306396484
349.0 387.0 21.176471710205078
360.0 193.0 45.490196228027344
389.0 214.0 47.45098114013672
410.0 203.0 44.70588302612305
409.0 232.0 45.09803771972656
597.0 544.0 46.66666793823242
244.0 442.0 6.274510383605957
368.0 174.0 37.25490188598633
311.0 209.0 41.960784912109375
290.0 246.0 14.509804725646973
439.0 378.0 36.86274719238281
389.0 222.0 47.843135833740234
317.0 350.0 6.6666669845581055
251.0 437.0 12.549020767211914
391.0 295.0 43.52941131591797
224.0 675.0 80.0
436.0 194.0 39.2156867980957
589.0 498.0 50.98039627075195
416.0 419.0 36.078433990478516
305.0 631.0 54.11764907836914
272.0 599.0 58.03921890258789
394.0 318.0 47.45098114013672
394.0 650.0 76.47058868408203
406.0 313.0 45.882354736328125
376.0 345.0 47.843135833740234
336.0 630.0 63.13725662231445
229.0 459.0 10.588235855102539
230.0 459.0 26.666667938232422
555.0 639.0 89.01960754394531
428.0 286.0 41.568626403808594
378.0 313.0 48.235294342041016
571.0 439.0 29.803922653198242
584.0 468.0 52.156864166259766
266.0 517.0 47.45098114013672
441.0 376.0 36.078433990478516
402.0 194.0 44.313724517822266
426.0 190.0 41.568626403808594
341.0 404.0 29.019609451293945
585.0 692.0 93.72549438476562
444.0 194.0 34.509803771972656
380.0 314.0 48.235294342041016
451.0 350.0 34.90196228027344
360.0 195.0 46.27450942993164
597.0 708.0 73.72549438476562
387.0 228.0 47.45098114013672
316.0 689.0 79.60784149169922
413.0 225.0 44.313724517822266
408.0 315.0 45.882354736328125
372.0 341.0 47.05882263183594
554.0 656.0 92.54901885986328
325.0 353.0 32.94117736816406
453.0 329.0 35.29411697387695
445.0 193.0 32.54901885986328
577.0 684.0 94.11764526367188
603.0 632.0 83.52941131591797
585.0 693.0 93.72549438476562
214.0 489.0 20.784313201904297
179.0 668.0 49.01960754394531
404.0 318.0 46.27450942993164
268.0 660.0 72.54901885986328
505.0 605.0 73.33333587646484
363.0 169.0 11.372549057006836
294.0 637.0 58.431373596191406
386.0 643.0 60.000003814697266
346.0 418.0 33.333335876464844
407.0 313.0 45.882354736328125
181.0 716.0 16.47058868408203
545.0 653.0 91.37255096435547
587.0 622.0 84.31372833251953
528.0 604.0 76.07843017578125
332.0 181.0 39.607845306396484
581.0 689.0 94.11764526367188
502.0 412.0 26.274511337280273
506.0 622.0 76.47058868408203
383.0 336.0 47.45098114013672
375.0 331.0 47.05882263183594
204.0 512.0 8.235294342041016
444.0 292.0 38.82352828979492
524.0 674.0 94.11764526367188
553.0 637.0 88.62744903564453
425.0 400.0 36.078433990478516
465.0 218.0 34.90196228027344
379.0 316.0 48.235294342041016
461.0 677.0 90.5882339477539
504.0 640.0 84.70588684082031
290.0 224.0 2.745098114013672
179.0 696.0 8.627450942993164
428.0 396.0 36.078433990478516
321.0 353.0 15.686275482177734
302.0 635.0 58.03921890258789
555.0 625.0 86.2745132446289
347.0 385.0 20.39215660095215
406.0 177.0 41.568626403808594
300.0 281.0 12.549020767211914
367.0 189.0 44.313724517822266
392.0 356.0 47.45098114013672
314.0 339.0 23.921567916870117
389.0 355.0 47.843135833740234
327.0 630.0 70.98039245605469
500.0 593.0 70.98039245605469
407.0 192.0 44.313724517822266
389.0 346.0 47.843135833740234
515.0 611.0 75.686279296875
493.0 409.0 26.666667938232422
440.0 197.0 39.2156867980957
429.0 274.0 41.568626403808594
463.0 292.0 34.11764907836914
425.0 252.0 42.352943420410156
217.0 562.0 56.4705924987793
403.0 202.0 45.09803771972656
460.0 394.0 19.60784339904785
314.0 305.0 22.745098114013672
363.0 196.0 46.27450942993164
460.0 276.0 36.86274719238281
210.0 661.0 76.07843017578125
541.0 653.0 91.37255096435547
344.0 217.0 47.45098114013672
394.0 332.0 47.45098114013672
525.0 604.0 75.686279296875
451.0 641.0 62.352943420410156
611.0 606.0 75.686279296875
406.0 332.0 46.66666793823242
622.0 621.0 56.4705924987793
271.0 565.0 51.37255096435547
392.0 201.0 45.882354736328125
400.0 214.0 46.66666793823242
461.0 336.0 23.921567916870117
438.0 189.0 11.764705657958984
527.0 581.0 74.90196228027344
454.0 310.0 34.11764907836914
343.0 644.0 75.29412078857422
454.0 270.0 38.039215087890625
293.0 267.0 8.627450942993164
584.0 733.0 79.21569061279297
292.0 253.0 6.6666669845581055
405.0 374.0 46.66666793823242
611.0 646.0 82.35294342041016
522.0 591.0 74.90196228027344
531.0 644.0 89.80392456054688
422.0 424.0 37.25490188598633
309.0 321.0 7.4509806632995605
602.0 688.0 59.607845306396484
468.0 251.0 36.47058868408203
439.0 192.0 36.86274719238281
195.0 557.0 11.764705657958984
461.0 281.0 36.47058868408203
461.0 665.0 88.23529815673828
570.0 743.0 95.29412078857422
202.0 539.0 6.274510383605957
415.0 288.0 42.352943420410156
352.0 198.0 46.66666793823242
535.0 644.0 89.4117660522461
410.0 268.0 44.313724517822266
330.0 179.0 16.47058868408203
389.0 237.0 46.27450942993164
379.0 345.0 47.843135833740234
461.0 676.0 90.19607543945312
411.0 187.0 42.74509811401367
324.0 410.0 8.627450942993164
274.0 635.0 61.960784912109375
343.0 647.0 76.47058868408203
621.0 618.0 61.56863021850586
305.0 201.0 16.47058868408203
448.0 305.0 37.25490188598633
334.0 653.0 78.4313735961914
566.0 675.0 94.50980377197266
244.0 521.0 49.80392074584961
537.0 581.0 74.90196228027344
389.0 258.0 45.882354736328125
507.0 632.0 80.39215850830078
267.0 430.0 23.52941131591797
558.0 643.0 89.80392456054688
525.0 553.0 66.66667175292969
494.0 409.0 18.431373596191406
603.0 568.0 49.80392074584961
260.0 499.0 45.490196228027344
407.0 267.0 44.70588302612305
590.0 698.0 92.54901885986328
598.0 629.0 84.31372833251953
519.0 668.0 92.94117736816406
298.0 685.0 77.64705657958984
331.0 665.0 79.60784149169922
290.0 245.0 21.960784912109375
182.0 612.0 7.4509806632995605
543.0 437.0 49.411766052246094
345.0 194.0 45.490196228027344
356.0 197.0 46.66666793823242
411.0 344.0 46.27450942993164
445.0 405.0 34.11764907836914
393.0 319.0 47.45098114013672
409.0 194.0 44.313724517822266
262.0 550.0 52.156864166259766
339.0 209.0 46.66666793823242
532.0 449.0 51.76470947265625
377.0 317.0 47.843135833740234
413.0 323.0 45.882354736328125
387.0 343.0 47.843135833740234
339.0 635.0 72.94117736816406
213.0 489.0 3.9215688705444336
459.0 337.0 26.666667938232422
367.0 307.0 46.66666793823242
270.0 531.0 48.235294342041016
339.0 645.0 76.47058868408203
344.0 202.0 46.66666793823242
367.0 255.0 45.882354736328125
204.0 533.0 8.627450942993164
412.0 182.0 40.7843132019043
179.0 653.0 27.05882453918457
470.0 224.0 25.882354736328125
605.0 585.0 55.686275482177734
324.0 182.0 18.823530197143555
528.0 415.0 23.921567916870117
393.0 339.0 47.45098114013672
391.0 268.0 45.490196228027344
436.0 197.0 40.39215850830078
617.0 676.0 61.56863021850586
548.0 656.0 92.1568603515625
204.0 510.0 9.411765098571777
489.0 407.0 19.60784339904785
568.0 633.0 88.23529815673828
607.0 603.0 80.0
597.0 724.0 88.23529815673828
226.0 569.0 58.431373596191406
266.0 663.0 74.11764526367188
378.0 345.0 47.843135833740234
506.0 632.0 80.0
439.0 267.0 40.39215850830078
538.0 441.0 50.196083068847656
352.0 189.0 44.70588302612305
309.0 318.0 7.058824062347412
502.0 595.0 71.76470947265625
432.0 417.0 35.686275482177734
432.0 192.0 40.39215850830078
606.0 594.0 62.74510192871094
241.0 583.0 60.39215850830078
429.0 288.0 41.568626403808594
528.0 680.0 94.90196228027344
462.0 215.0 31.37255096435547
467.0 236.0 36.47058868408203
509.0 609.0 74.11764526367188
495.0 410.0 21.176471710205078
411.0 203.0 44.70588302612305
304.0 688.0 79.21569061279297
382.0 311.0 48.235294342041016
346.0 196.0 45.882354736328125
374.0 646.0 64.31372833251953
179.0 651.0 18.039216995239258
521.0 670.0 93.33333587646484
311.0 206.0 41.960784912109375
267.0 660.0 72.94117736816406
531.0 603.0 76.47058868408203
418.0 285.0 42.352943420410156
461.0 672.0 89.80392456054688
389.0 243.0 46.27450942993164
411.0 200.0 44.313724517822266
454.0 271.0 38.039215087890625
457.0 392.0 24.3137264251709
443.0 263.0 40.0
324.0 183.0 32.54901885986328
375.0 333.0 47.05882263183594
411.0 223.0 45.09803771972656
409.0 282.0 43.13725662231445
341.0 653.0 78.03921508789062
471.0 282.0 33.72549057006836
372.0 251.0 45.882354736328125
312.0 689.0 79.21569061279297
463.0 647.0 77.2549057006836
203.0 664.0 75.686279296875
432.0 418.0 36.47058868408203
340.0 399.0 5.490196228027344
414.0 245.0 43.92156982421875
450.0 388.0 16.86274528503418
396.0 261.0 45.882354736328125
541.0 645.0 89.80392456054688
335.0 632.0 72.15686798095703
476.0 255.0 31.764707565307617
219.0 478.0 12.15686321258545
337.0 632.0 72.15686798095703
353.0 170.0 21.960784912109375
542.0 646.0 89.80392456054688
345.0 182.0 41.17647171020508
458.0 269.0 37.25490188598633
388.0 336.0 47.45098114013672
309.0 292.0 31.764707565307617
342.0 403.0 28.627452850341797
392.0 203.0 46.27450942993164
224.0 471.0 21.176471710205078
563.0 759.0 60.000003814697266
589.0 697.0 92.94117736816406
601.0 630.0 83.52941131591797
302.0 645.0 70.19608306884766
412.0 298.0 42.74509811401367
186.0 595.0 21.960784912109375
398.0 267.0 45.490196228027344
184.0 735.0 45.490196228027344
275.0 631.0 60.78431701660156
405.0 230.0 45.882354736328125
376.0 255.0 45.882354736328125
474.0 253.0 34.509803771972656
569.0 745.0 75.686279296875
545.0 657.0 92.1568603515625
344.0 382.0 40.7843132019043
293.0 219.0 3.9215688705444336
503.0 598.0 72.15686798095703
204.0 663.0 75.686279296875
343.0 188.0 43.92156982421875
533.0 641.0 88.62744903564453
179.0 656.0 41.568626403808594
531.0 587.0 73.72549438476562
351.0 640.0 69.80392456054688
237.0 580.0 60.000003814697266
430.0 268.0 41.568626403808594
303.0 688.0 79.60784149169922
294.0 662.0 72.15686798095703
392.0 202.0 46.27450942993164
469.0 291.0 34.509803771972656
394.0 221.0 47.45098114013672
191.0 757.0 43.92156982421875
384.0 190.0 44.70588302612305
600.0 692.0 69.4117660522461
239.0 446.0 3.9215688705444336
407.0 332.0 46.66666793823242
578.0 453.0 49.411766052246094
461.0 684.0 91.37255096435547
336.0 655.0 78.4313735961914
180.0 639.0 30.58823585510254
179.0 661.0 47.05882263183594
344.0 641.0 73.72549438476562
608.0 683.0 78.82353210449219
532.0 447.0 51.37255096435547
469.0 254.0 36.078433990478516
596.0 533.0 60.000003814697266
570.0 656.0 91.37255096435547
295.0 217.0 10.980392456054688
439.0 284.0 40.0
309.0 212.0 41.960784912109375
571.0 440.0 38.431373596191406
407.0 369.0 46.66666793823242
431.0 390.0 36.078433990478516
455.0 333.0 33.72549057006836
608.0 603.0 59.607845306396484
319.0 413.0 10.588235855102539
461.0 657.0 85.88235473632812
434.0 246.0 41.17647171020508
189.0 754.0 21.568628311157227
377.0 168.0 18.039216995239258
426.0 421.0 36.47058868408203
523.0 552.0 67.05882263183594
421.0 291.0 42.352943420410156
616.0 649.0 52.156864166259766
341.0 213.0 47.05882263183594
600.0 716.0 74.50980377197266
459.0 300.0 34.11764907836914
410.0 289.0 42.352943420410156
348.0 221.0 47.843135833740234
412.0 317.0 45.490196228027344
204.0 520.0 8.235294342041016
463.0 308.0 33.333335876464844
377.0 335.0 47.45098114013672
314.0 304.0 27.843137741088867
349.0 223.0 47.843135833740234
504.0 635.0 81.17646789550781
447.0 403.0 34.11764907836914
492.0 408.0 11.372549057006836
500.0 618.0 71.37255096435547
446.0 297.0 38.039215087890625
594.0 701.0 91.76470947265625
452.0 335.0 36.86274719238281
302.0 419.0 8.235294342041016
365.0 201.0 47.45098114013672
507.0 564.0 65.49019622802734
291.0 247.0 17.254901885986328
238.0 507.0 47.843135833740234
412.0 323.0 45.882354736328125
388.0 201.0 46.27450942993164
439.0 411.0 34.509803771972656
399.0 175.0 14.117648124694824
781.0 793.0 25.098041534423828
399.0 645.0 60.000003814697266
435.0 278.0 40.39215850830078
219.0 656.0 75.686279296875
410.0 342.0 46.27450942993164
179.0 646.0 7.843137741088867
467.0 245.0 37.25490188598633
233.0 778.0 47.05882263183594
270.0 563.0 51.76470947265625
390.0 222.0 47.843135833740234
550.0 634.0 88.23529815673828
395.0 375.0 47.05882263183594
536.0 691.0 96.07843017578125
398.0 228.0 46.66666793823242
417.0 420.0 36.078433990478516
299.0 652.0 71.76470947265625
574.0 616.0 84.31372833251953
295.0 270.0 20.0
609.0 638.0 81.96078491210938
529.0 415.0 17.647058486938477
467.0 220.0 32.94117736816406
394.0 256.0 45.882354736328125
244.0 587.0 61.17647171020508
296.0 272.0 20.784313201904297
420.0 289.0 41.960784912109375
543.0 570.0 72.94117736816406
453.0 209.0 29.803922653198242
179.0 677.0 52.156864166259766
223.0 473.0 17.254901885986328
181.0 620.0 12.941177368164062
382.0 189.0 44.313724517822266
463.0 302.0 33.72549057006836
279.0 612.0 55.29412078857422
330.0 661.0 79.60784149169922
457.0 302.0 34.509803771972656
542.0 569.0 73.33333587646484
617.0 641.0 58.82353210449219
447.0 390.0 30.58823585510254
419.0 289.0 42.352943420410156
560.0 645.0 90.19607543945312
401.0 175.0 11.372549057006836
599.0 713.0 100.0
319.0 662.0 79.21569061279297
359.0 255.0 45.490196228027344
504.0 636.0 82.35294342041016
430.0 288.0 41.568626403808594
596.0 628.0 84.70588684082031
275.0 426.0 4.705882549285889
288.0 239.0 15.29411792755127
525.0 555.0 69.01960754394531
404.0 191.0 44.313724517822266
547.0 655.0 91.76470947265625
466.0 223.0 35.686275482177734
390.0 216.0 47.843135833740234
607.0 636.0 82.35294342041016
346.0 182.0 41.17647171020508
363.0 174.0 36.078433990478516
272.0 577.0 52.94117736816406
192.0 760.0 24.705883026123047
600.0 719.0 81.17646789550781
567.0 748.0 58.03921890258789
404.0 221.0 46.27450942993164
279.0 664.0 69.4117660522461
418.0 421.0 36.078433990478516
468.0 248.0 36.86274719238281
226.0 465.0 11.372549057006836
455.0 311.0 34.11764907836914
526.0 554.0 67.05882263183594
281.0 665.0 70.19608306884766
538.0 562.0 72.15686798095703
206.0 531.0 28.23529624938965
474.0 274.0 29.411766052246094
546.0 648.0 90.5882339477539
564.0 764.0 59.607845306396484
372.0 342.0 47.45098114013672
354.0 188.0 44.313724517822266
325.0 181.0 6.6666669845581055
508.0 618.0 75.686279296875
310.0 296.0 12.15686321258545
230.0 457.0 3.9215688705444336
369.0 175.0 38.039215087890625
302.0 644.0 69.01960754394531
399.0 192.0 44.313724517822266
592.0 512.0 56.078433990478516
539.0 651.0 91.37255096435547
574.0 615.0 83.92156982421875
561.0 428.0 12.15686321258545
226.0 673.0 79.60784149169922
615.0 637.0 76.07843017578125
424.0 267.0 42.74509811401367
407.0 339.0 46.66666793823242
420.0 282.0 42.352943420410156
459.0 393.0 15.29411792755127
396.0 650.0 76.47058868408203
410.0 298.0 42.74509811401367
381.0 648.0 70.19608306884766
529.0 603.0 76.07843017578125
274.0 427.0 13.333333969116211
426.0 250.0 41.960784912109375
449.0 280.0 38.431373596191406
464.0 303.0 33.333335876464844
547.0 623.0 85.49019622802734
328.0 669.0 80.39215850830078
255.0 539.0 51.37255096435547
392.0 345.0 47.843135833740234
179.0 676.0 51.76470947265625
550.0 657.0 92.1568603515625
218.0 562.0 56.4705924987793
405.0 187.0 43.13725662231445
387.0 358.0 47.843135833740234
593.0 515.0 65.09803771972656
326.0 409.0 11.764705657958984
553.0 655.0 92.1568603515625
449.0 208.0 38.431373596191406
450.0 283.0 38.039215087890625
615.0 635.0 76.07843017578125
326.0 408.0 6.274510383605957
332.0 631.0 72.54901885986328
568.0 792.0 54.50980758666992
603.0 649.0 85.88235473632812
181.0 634.0 51.76470947265625
240.0 785.0 33.333335876464844
411.0 375.0 45.882354736328125
391.0 242.0 45.882354736328125
370.0 285.0 44.70588302612305
404.0 231.0 45.882354736328125
417.0 246.0 43.52941131591797
384.0 199.0 46.27450942993164
543.0 646.0 89.80392456054688
210.0 772.0 83.52941131591797
361.0 201.0 47.45098114013672
335.0 373.0 20.784313201904297
515.0 563.0 70.5882339477539
608.0 644.0 83.52941131591797
180.0 704.0 33.333335876464844
389.0 203.0 46.66666793823242
538.0 581.0 74.90196228027344
390.0 242.0 46.27450942993164
553.0 625.0 86.2745132446289
372.0 309.0 47.843135833740234
458.0 293.0 35.29411697387695
396.0 244.0 45.882354736328125
603.0 570.0 53.333335876464844
387.0 645.0 60.39215850830078
320.0 412.0 4.313725471496582
466.0 218.0 20.0
291.0 679.0 76.07843017578125
348.0 420.0 33.72549057006836
536.0 690.0 96.07843017578125
572.0 741.0 88.23529815673828
296.0 217.0 26.666667938232422
372.0 258.0 45.882354736328125
296.0 215.0 5.098039150238037
330.0 185.0 40.7843132019043
336.0 174.0 5.490196228027344
385.0 197.0 45.882354736328125
242.0 518.0 49.411766052246094
456.0 302.0 34.90196228027344
403.0 316.0 46.27450942993164
537.0 556.0 70.19608306884766
465.0 294.0 33.72549057006836
461.0 214.0 21.568628311157227
413.0 650.0 75.686279296875
575.0 637.0 89.01960754394531
461.0 230.0 38.039215087890625
211.0 494.0 18.823530197143555
347.0 634.0 57.254905700683594
446.0 189.0 10.196078300476074
449.0 294.0 36.86274719238281
368.0 291.0 44.313724517822266
579.0 686.0 94.11764526367188
431.0 207.0 42.352943420410156
353.0 206.0 47.45098114013672
357.0 205.0 47.843135833740234
404.0 333.0 47.05882263183594
362.0 203.0 47.843135833740234
361.0 642.0 65.88235473632812
182.0 615.0 27.45098114013672
554.0 639.0 89.4117660522461
403.0 249.0 45.09803771972656
332.0 369.0 25.882354736328125
338.0 657.0 78.82353210449219
389.0 193.0 45.09803771972656
252.0 436.0 10.588235855102539
523.0 589.0 74.50980377197266
272.0 569.0 50.98039627075195
375.0 367.0 47.05882263183594
418.0 268.0 43.52941131591797
419.0 243.0 43.13725662231445
461.0 306.0 34.11764907836914
317.0 665.0 79.60784149169922
359.0 641.0 60.000003814697266
301.0 635.0 57.64706039428711
574.0 681.0 94.11764526367188
197.0 552.0 14.117648124694824
504.0 571.0 65.49019622802734
435.0 256.0 41.17647171020508
436.0 413.0 34.90196228027344
311.0 214.0 42.352943420410156
538.0 557.0 70.19608306884766
268.0 523.0 47.843135833740234
284.0 639.0 55.686275482177734
391.0 339.0 47.45098114013672
313.0 202.0 41.568626403808594
581.0 688.0 94.11764526367188
543.0 651.0 90.98039245605469
622.0 620.0 45.09803771972656
238.0 447.0 13.333333969116211
403.0 298.0 42.74509811401367
526.0 588.0 74.11764526367188
463.0 654.0 85.09803771972656
226.0 570.0 58.431373596191406
252.0 667.0 77.64705657958984
253.0 536.0 50.98039627075195
332.0 183.0 40.39215850830078
306.0 631.0 54.11764907836914
430.0 193.0 41.568626403808594
346.0 176.0 34.509803771972656
319.0 661.0 78.82353210449219
388.0 204.0 46.66666793823242
360.0 180.0 41.17647171020508
520.0 668.0 92.94117736816406
382.0 331.0 47.843135833740234
240.0 791.0 31.764707565307617
313.0 193.0 33.333335876464844
439.0 189.0 11.764705657958984
441.0 265.0 40.39215850830078
411.0 198.0 44.313724517822266
378.0 365.0 47.45098114013672
272.0 663.0 69.80392456054688
303.0 286.0 7.058824062347412
303.0 204.0 7.4509806632995605
466.0 296.0 32.94117736816406
359.0 192.0 45.09803771972656
294.0 219.0 11.372549057006836
444.0 192.0 33.72549057006836
213.0 679.0 80.39215850830078
337.0 649.0 77.64705657958984
230.0 458.0 13.333333969116211
782.0 791.0 25.098041534423828
332.0 240.0 45.09803771972656
453.0 328.0 34.90196228027344
617.0 612.0 59.21569061279297
201.0 542.0 9.803921699523926
597.0 700.0 69.80392456054688
586.0 693.0 93.33333587646484
378.0 283.0 44.70588302612305
529.0 589.0 73.72549438476562
414.0 203.0 44.313724517822266
239.0 514.0 49.01960754394531
351.0 222.0 47.843135833740234
399.0 650.0 76.47058868408203
591.0 670.0 90.19607543945312
411.0 225.0 45.09803771972656
179.0 641.0 6.6666669845581055
474.0 276.0 21.960784912109375
544.0 646.0 89.80392456054688
605.0 656.0 85.09803771972656
217.0 657.0 75.686279296875
567.0 779.0 58.03921890258789
618.0 671.0 78.03921508789062
601.0 689.0 85.09803771972656
341.0 205.0 46.66666793823242
410.0 243.0 44.313724517822266
474.0 275.0 27.05882453918457
372.0 168.0 21.176471710205078
181.0 632.0 40.7843132019043
352.0 420.0 34.11764907836914
188.0 750.0 23.52941131591797
330.0 233.0 45.490196228027344
429.0 245.0 41.568626403808594
438.0 282.0 40.0
363.0 203.0 47.843135833740234
330.0 364.0 22.352941513061523
290.0 226.0 27.05882453918457
311.0 204.0 41.568626403808594
573.0 615.0 84.31372833251953
418.0 242.0 43.13725662231445
305.0 689.0 80.39215850830078
504.0 624.0 76.07843017578125
352.0 200.0 47.05882263183594
434.0 196.0 40.7843132019043
576.0 663.0 91.76470947265625
401.0 220.0 47.05882263183594
459.0 222.0 37.64706039428711
456.0 315.0 33.72549057006836
254.0 538.0 51.37255096435547
410.0 232.0 44.70588302612305
563.0 631.0 87.8431396484375
544.0 421.0 24.705883026123047
295.0 659.0 71.76470947265625
389.0 342.0 47.843135833740234
422.0 265.0 43.13725662231445
587.0 623.0 84.70588684082031
600.0 636.0 85.09803771972656
241.0 515.0 49.01960754394531
436.0 189.0 12.15686321258545
575.0 662.0 91.76470947265625
352.0 261.0 44.70588302612305
576.0 447.0 28.23529624938965
395.0 189.0 44.313724517822266
504.0 642.0 85.49019622802734
440.0 285.0 39.607845306396484
462.0 315.0 32.94117736816406
402.0 217.0 46.66666793823242
454.0 286.0 37.25490188598633
364.0 254.0 45.882354736328125
539.0 643.0 89.4117660522461
562.0 630.0 87.8431396484375
401.0 313.0 46.27450942993164
466.0 290.0 33.72549057006836
594.0 626.0 84.31372833251953
316.0 414.0 9.019608497619629
555.0 640.0 89.4117660522461
411.0 202.0 44.70588302612305
350.0 196.0 46.27450942993164
325.0 354.0 25.490198135375977
395.0 346.0 47.45098114013672
358.0 192.0 45.490196228027344
475.0 253.0 34.509803771972656
606.0 657.0 84.31372833251953
460.0 227.0 38.039215087890625
324.0 665.0 80.0
432.0 199.0 41.960784912109375
285.0 424.0 14.509804725646973
402.0 267.0 45.09803771972656
410.0 650.0 75.686279296875
559.0 628.0 87.45098114013672
287.0 639.0 58.431373596191406
334.0 652.0 78.03921508789062
342.0 214.0 47.45098114013672
569.0 613.0 83.92156982421875
425.0 422.0 36.47058868408203
452.0 346.0 24.705883026123047
330.0 236.0 45.09803771972656
279.0 614.0 56.078433990478516
179.0 694.0 9.019608497619629
407.0 224.0 45.882354736328125
532.0 594.0 75.29412078857422
291.0 638.0 59.21569061279297
457.0 288.0 36.47058868408203
388.0 645.0 60.39215850830078
236.0 579.0 60.000003814697266
580.0 687.0 94.11764526367188
465.0 305.0 33.333335876464844
292.0 221.0 4.705882549285889
185.0 600.0 25.098041534423828
507.0 413.0 17.647058486938477
215.0 486.0 7.058824062347412
386.0 197.0 45.882354736328125
342.0 197.0 45.490196228027344
390.0 346.0 47.843135833740234
460.0 299.0 34.11764907836914
330.0 182.0 40.39215850830078
403.0 646.0 60.39215850830078
222.0 655.0 75.686279296875
432.0 388.0 36.47058868408203
449.0 639.0 62.352943420410156
304.0 418.0 12.15686321258545
450.0 395.0 32.156864166259766
412.0 318.0 45.490196228027344
378.0 205.0 47.45098114013672
264.0 431.0 23.13725471496582
264.0 512.0 47.05882263183594
615.0 630.0 75.29412078857422
415.0 241.0 43.52941131591797
309.0 319.0 7.058824062347412
554.0 665.0 93.33333587646484
503.0 617.0 72.94117736816406
295.0 683.0 77.2549057006836
186.0 593.0 10.980392456054688
513.0 563.0 69.80392456054688
383.0 172.0 36.078433990478516
465.0 226.0 36.47058868408203
536.0 582.0 74.50980377197266
453.0 273.0 38.039215087890625
458.0 301.0 34.509803771972656
275.0 632.0 60.39215850830078
516.0 561.0 70.5882339477539
446.0 277.0 39.2156867980957
387.0 191.0 44.70588302612305
297.0 654.0 70.98039245605469
316.0 415.0 21.568628311157227
382.0 244.0 46.27450942993164
474.0 234.0 17.647058486938477
443.0 198.0 38.82352828979492
357.0 191.0 45.09803771972656
532.0 553.0 68.62745666503906
345.0 214.0 47.45098114013672
511.0 654.0 89.80392456054688
461.0 213.0 9.411765098571777
400.0 204.0 45.882354736328125
340.0 648.0 77.2549057006836
616.0 610.0 34.509803771972656
259.0 665.0 76.07843017578125
589.0 495.0 49.01960754394531
434.0 259.0 41.17647171020508
443.0 370.0 38.039215087890625
393.0 173.0 34.11764907836914
243.0 520.0 49.411766052246094
438.0 413.0 35.29411697387695
360.0 169.0 14.509804725646973
284.0 424.0 14.901961326599121
541.0 649.0 90.5882339477539
413.0 422.0 36.078433990478516
531.0 637.0 87.05882263183594
524.0 606.0 75.686279296875
542.0 578.0 74.90196228027344
338.0 633.0 73.33333587646484
453.0 276.0 38.039215087890625
194.0 565.0 28.627452850341797
448.0 387.0 19.215686798095703
574.0 739.0 54.90196228027344
467.0 237.0 36.86274719238281
466.0 238.0 37.25490188598633
263.0 663.0 74.90196228027344
315.0 345.0 3.529412031173706
227.0 464.0 10.980392456054688
590.0 729.0 97.2549057006836
553.0 424.0 23.921567916870117
352.0 425.0 34.90196228027344
375.0 256.0 45.882354736328125
415.0 318.0 45.490196228027344
411.0 182.0 41.17647171020508
208.0 502.0 25.490198135375977
377.0 205.0 47.45098114013672
462.0 290.0 34.90196228027344
601.0 646.0 86.66666412353516
351.0 172.0 16.47058868408203
288.0 422.0 8.235294342041016
389.0 267.0 45.490196228027344
509.0 624.0 78.82353210449219
797.0 796.0 25.490198135375977
394.0 264.0 45.490196228027344
412.0 180.0 40.0
416.0 280.0 42.74509811401367
403.0 651.0 78.03921508789062
586.0 621.0 83.92156982421875
348.0 634.0 57.64706039428711
292.0 665.0 72.15686798095703
350.0 223.0 47.843135833740234
199.0 545.0 7.4509806632995605
370.0 342.0 47.05882263183594
555.0 641.0 89.80392456054688
181.0 719.0 15.686275482177734
219.0 477.0 3.529412031173706
240.0 583.0 60.39215850830078
402.0 202.0 45.490196228027344
457.0 317.0 33.333335876464844
241.0 668.0 78.4313735961914
557.0 627.0 87.05882263183594
466.0 651.0 84.70588684082031
431.0 393.0 35.686275482177734
239.0 582.0 60.39215850830078
542.0 576.0 75.29412078857422
350.0 417.0 33.333335876464844
295.0 637.0 59.21569061279297
340.0 649.0 77.2549057006836
358.0 310.0 43.92156982421875
454.0 269.0 38.039215087890625
582.0 690.0 94.11764526367188
416.0 242.0 43.52941131591797
422.0 184.0 40.0
551.0 659.0 92.54901885986328
370.0 645.0 66.66667175292969
383.0 642.0 59.607845306396484
316.0 195.0 39.607845306396484
394.0 225.0 47.45098114013672
257.0 433.0 11.372549057006836
506.0 565.0 64.70588684082031
195.0 558.0 12.941177368164062
407.0 186.0 42.74509811401367
365.0 643.0 61.960784912109375
589.0 490.0 47.843135833740234
421.0 184.0 40.39215850830078
592.0 513.0 54.90196228027344
398.0 181.0 41.568626403808594
355.0 186.0 43.52941131591797
419.0 411.0 36.078433990478516
568.0 654.0 90.98039245605469
319.0 689.0 79.60784149169922
503.0 597.0 72.15686798095703
367.0 303.0 46.27450942993164
408.0 650.0 76.07843017578125
449.0 399.0 33.333335876464844
470.0 289.0 32.156864166259766
392.0 188.0 43.92156982421875
385.0 313.0 47.843135833740234
437.0 413.0 34.90196228027344
347.0 220.0 47.843135833740234
542.0 650.0 90.98039245605469
424.0 248.0 42.352943420410156
181.0 635.0 56.4705924987793
429.0 273.0 41.568626403808594
466.0 235.0 36.86274719238281
546.0 631.0 87.8431396484375
272.0 537.0 48.235294342041016
393.0 650.0 76.47058868408203
422.0 292.0 42.352943420410156
599.0 642.0 86.2745132446289
345.0 406.0 30.19607925415039
615.0 644.0 74.50980377197266
502.0 596.0 71.76470947265625
596.0 700.0 93.72549438476562
604.0 580.0 68.23529815673828
407.0 650.0 76.07843017578125
394.0 227.0 47.05882263183594
411.0 178.0 38.82352828979492
456.0 211.0 20.39215660095215
432.0 271.0 40.7843132019043
368.0 254.0 45.882354736328125
510.0 632.0 81.5686264038086
563.0 756.0 54.50980758666992
519.0 550.0 64.70588684082031
180.0 703.0 34.11764907836914
290.0 638.0 58.431373596191406
179.0 674.0 50.98039627075195
368.0 289.0 44.313724517822266
427.0 254.0 41.960784912109375
601.0 561.0 61.56863021850586
188.0 584.0 7.058824062347412
296.0 683.0 76.07843017578125
430.0 393.0 35.686275482177734
431.0 185.0 12.549020767211914
292.0 248.0 33.333335876464844