ply
format ascii 1.0
element vertex 1000
property float x
property float y
property float z
end_header
198.0 167.0 73.72549438476562
198.0 138.0 50.196083068847656
577.0 301.0 72.15686798095703
422.0 327.0 79.21569061279297
167.0 196.0 70.98039245605469
370.0 174.0 75.686279296875
642.0 508.0 54.11764907836914
531.0 173.0 76.86274719238281
356.0 137.0 49.01960754394531
495.0 151.0 58.03921890258789
177.0 403.0 60.78431701660156
444.0 543.0 64.70588684082031
380.0 301.0 84.31372833251953
312.0 195.0 92.94117736816406
398.0 517.0 69.4117660522461
336.0 197.0 94.50980377197266
182.0 183.0 76.86274719238281
437.0 203.0 87.45098114013672
168.0 233.0 68.23529815673828
190.0 504.0 58.03921890258789
288.0 519.0 77.2549057006836
457.0 186.0 86.66666412353516
570.0 553.0 55.686275482177734
153.0 455.0 48.235294342041016
217.0 610.0 57.254905700683594
604.0 178.0 79.60784149169922
108.0 229.0 47.05882263183594
357.0 538.0 70.98039245605469
199.0 282.0 74.90196228027344
105.0 199.0 30.19607925415039
548.0 213.0 80.39215850830078
169.0 310.0 63.13725662231445
453.0 599.0 59.607845306396484
133.0 346.0 48.6274528503418
106.0 273.0 19.60784339904785
224.0 179.0 81.5686264038086
646.0 189.0 75.686279296875
162.0 382.0 56.078433990478516
629.0 189.0 77.2549057006836
106.0 208.0 47.45098114013672
105.0 164.0 38.039215087890625
368.0 146.0 55.29412078857422
471.0 266.0 80.0
139.0 235.0 58.03921890258789
157.0 354.0 56.078433990478516
250.0 609.0 70.98039245605469
230.0 400.0 78.03921508789062
214.0 443.0 70.5882339477539
542.0 394.0 67.45098114013672
614.0 492.0 57.254905700683594
109.0 340.0 40.39215850830078
578.0 301.0 72.15686798095703
168.0 352.0 60.000003814697266
217.0 188.0 87.8431396484375
652.0 506.0 48.6274528503418
369.0 506.0 72.54901885986328
178.0 244.0 70.5882339477539
461.0 412.0 70.98039245605469
216.0 126.0 41.568626403808594
212.0 609.0 54.50980758666992
494.0 416.0 69.4117660522461
127.0 442.0 39.607845306396484
444.0 282.0 80.78431701660156
179.0 568.0 49.80392074584961
558.0 463.0 62.352943420410156
164.0 141.0 54.50980758666992
544.0 499.0 61.17647171020508
139.0 233.0 58.03921890258789
119.0 237.0 49.80392074584961
563.0 474.0 61.56863021850586
534.0 490.0 62.352943420410156
505.0 158.0 63.529415130615234
262.0 205.0 99.21568298339844
558.0 134.0 31.764707565307617
308.0 307.0 88.62744903564453
171.0 517.0 50.196083068847656
178.0 443.0 58.431373596191406
271.0 137.0 49.411766052246094
227.0 291.0 83.13725280761719
245.0 269.0 91.76470947265625
454.0 236.0 83.52941131591797
142.0 537.0 39.607845306396484
545.0 435.0 65.88235473632812
541.0 160.0 66.66667175292969
176.0 249.0 69.80392456054688
437.0 189.0 87.45098114013672
445.0 340.0 76.47058868408203
471.0 143.0 52.54902267456055
141.0 256.0 57.254905700683594
471.0 264.0 80.39215850830078
192.0 385.0 66.2745132446289
589.0 389.0 65.88235473632812
535.0 400.0 67.45098114013672
352.0 225.0 92.1568603515625
196.0 486.0 60.78431701660156
346.0 127.0 41.960784912109375
638.0 374.0 63.13725662231445
251.0 490.0 80.39215850830078
141.0 291.0 55.29412078857422
582.0 157.0 63.92156982421875
633.0 479.0 56.86274719238281
156.0 270.0 61.56863021850586
109.0 338.0 40.0
449.0 145.0 53.725494384765625
204.0 414.0 69.01960754394531
462.0 544.0 63.13725662231445
111.0 440.0 30.19607925415039
368.0 495.0 73.33333587646484
132.0 286.0 51.37255096435547
300.0 435.0 82.35294342041016
308.0 167.0 70.98039245605469
356.0 312.0 84.70588684082031
308.0 516.0 76.07843017578125
514.0 187.0 85.09803771972656
469.0 166.0 70.19608306884766
281.0 117.0 17.647058486938477
427.0 173.0 75.29412078857422
541.0 199.0 81.96078491210938
655.0 359.0 50.58823776245117
164.0 469.0 50.98039627075195
527.0 137.0 48.6274528503418
254.0 640.0 67.45098114013672
247.0 336.0 89.4117660522461
442.0 136.0 47.45098114013672
247.0 380.0 86.2745132446289
258.0 148.0 58.03921890258789
342.0 285.0 88.23529815673828
240.0 532.0 72.94117736816406
150.0 128.0 22.745098114013672
597.0 379.0 65.88235473632812
311.0 544.0 74.11764526367188
167.0 127.0 30.980392456054688
204.0 341.0 73.33333587646484
131.0 254.0 52.94117736816406
128.0 344.0 46.66666793823242
570.0 560.0 55.29412078857422
208.0 140.0 51.37255096435547
342.0 567.0 70.19608306884766
382.0 428.0 76.47058868408203
136.0 545.0 34.509803771972656
250.0 319.0 90.98039245605469
170.0 328.0 62.352943420410156
250.0 422.0 84.31372833251953
106.0 133.0 34.90196228027344
656.0 258.0 57.254905700683594
326.0 295.0 88.62744903564453
467.0 292.0 78.03921508789062
569.0 450.0 63.13725662231445
179.0 567.0 49.80392074584961
200.0 391.0 68.62745666503906
492.0 118.0 35.29411697387695
246.0 475.0 80.39215850830078
555.0 426.0 65.09803771972656
233.0 432.0 78.82353210449219
525.0 135.0 47.05882263183594
481.0 151.0 57.64706039428711
470.0 454.0 68.62745666503906
212.0 325.0 76.86274719238281
350.0 337.0 83.92156982421875
194.0 129.0 43.92156982421875
353.0 170.0 72.94117736816406
183.0 265.0 70.5882339477539
177.0 398.0 61.17647171020508
210.0 286.0 77.64705657958984
283.0 204.0 98.4313735961914
555.0 421.0 65.49019622802734
210.0 496.0 64.70588684082031
604.0 176.0 78.82353210449219
581.0 407.0 65.09803771972656
433.0 107.0 21.960784912109375
145.0 264.0 58.03921890258789
425.0 174.0 75.686279296875
150.0 276.0 59.21569061279297
536.0 172.0 76.07843017578125
159.0 561.0 41.960784912109375
140.0 488.0 42.74509811401367
600.0 386.0 65.09803771972656
186.0 477.0 58.03921890258789
531.0 412.0 67.8431396484375
522.0 289.0 75.686279296875
140.0 478.0 43.52941131591797
134.0 356.0 48.235294342041016
331.0 187.0 86.66666412353516
105.0 144.0 46.27450942993164
186.0 479.0 58.03921890258789
193.0 279.0 73.33333587646484
242.0 631.0 65.09803771972656
463.0 618.0 56.078433990478516
254.0 575.0 74.50980377197266
422.0 161.0 65.49019622802734
478.0 141.0 51.76470947265625
450.0 186.0 86.2745132446289
217.0 314.0 79.60784149169922
432.0 190.0 88.23529815673828
230.0 158.0 64.70588684082031
341.0 360.0 83.52941131591797
215.0 549.0 62.352943420410156
187.0 501.0 57.254905700683594
167.0 202.0 70.5882339477539
352.0 581.0 68.62745666503906
135.0 363.0 48.235294342041016
560.0 497.0 59.607845306396484
357.0 537.0 70.98039245605469
148.0 249.0 60.39215850830078
487.0 160.0 65.09803771972656
207.0 465.0 66.2745132446289
652.0 446.0 51.76470947265625
338.0 139.0 49.80392074584961
164.0 161.0 70.19608306884766
295.0 201.0 97.64705657958984
591.0 192.0 80.0
404.0 206.0 89.4117660522461
652.0 432.0 54.11764907836914
554.0 583.0 54.11764907836914
451.0 403.0 72.15686798095703
177.0 412.0 60.39215850830078
215.0 504.0 65.49019622802734
190.0 191.0 78.82353210449219
173.0 416.0 58.03921890258789
244.0 496.0 78.03921508789062
559.0 605.0 51.76470947265625
558.0 595.0 52.94117736816406
145.0 494.0 43.92156982421875
110.0 471.0 25.490198135375977
243.0 450.0 81.17646789550781
451.0 143.0 51.76470947265625
530.0 518.0 60.78431701660156
139.0 507.0 41.17647171020508
467.0 291.0 78.03921508789062
241.0 534.0 73.33333587646484
206.0 177.0 81.17646789550781
222.0 314.0 81.5686264038086
219.0 136.0 47.843135833740234
255.0 593.0 73.33333587646484
216.0 365.0 75.686279296875
218.0 206.0 87.05882263183594
366.0 197.0 93.72549438476562
564.0 451.0 63.13725662231445
332.0 128.0 42.74509811401367
444.0 472.0 69.80392456054688
235.0 535.0 70.98039245605469
341.0 334.0 85.49019622802734
336.0 305.0 87.05882263183594
488.0 281.0 78.03921508789062
206.0 310.0 76.07843017578125
564.0 433.0 64.31372833251953
310.0 170.0 72.94117736816406
612.0 492.0 57.254905700683594
570.0 581.0 53.725494384765625
338.0 402.0 81.17646789550781
620.0 175.0 77.2549057006836
537.0 178.0 80.0
211.0 555.0 60.78431701660156
250.0 576.0 73.72549438476562
207.0 590.0 56.4705924987793
445.0 333.0 76.86274719238281
123.0 147.0 58.03921890258789
220.0 207.0 87.8431396484375
490.0 153.0 59.21569061279297
509.0 180.0 81.17646789550781
280.0 163.0 67.45098114013672
173.0 241.0 69.4117660522461
207.0 516.0 62.74510192871094
166.0 164.0 71.76470947265625
168.0 472.0 52.156864166259766
546.0 558.0 57.254905700683594
109.0 251.0 45.490196228027344
579.0 602.0 51.37255096435547
268.0 328.0 90.5882339477539
209.0 298.0 76.86274719238281
573.0 380.0 67.05882263183594
222.0 415.0 74.50980377197266
225.0 316.0 82.35294342041016
195.0 492.0 60.000003814697266
564.0 187.0 81.96078491210938
135.0 463.0 42.352943420410156
337.0 323.0 86.2745132446289
269.0 182.0 82.74510192871094
322.0 183.0 83.13725280761719
244.0 507.0 76.86274719238281
285.0 627.0 68.62745666503906
405.0 160.0 64.31372833251953
283.0 164.0 68.23529815673828
444.0 556.0 63.92156982421875
397.0 299.0 82.74510192871094
154.0 370.0 54.11764907836914
173.0 510.0 51.37255096435547
137.0 349.0 49.80392074584961
499.0 162.0 66.2745132446289
218.0 161.0 67.8431396484375
480.0 149.0 56.078433990478516
454.0 501.0 66.66667175292969
176.0 309.0 65.88235473632812
619.0 596.0 49.80392074584961
444.0 125.0 40.39215850830078
613.0 271.0 71.76470947265625
347.0 150.0 57.64706039428711
422.0 315.0 79.60784149169922
154.0 175.0 67.8431396484375
250.0 439.0 83.52941131591797
149.0 250.0 60.78431701660156
219.0 135.0 47.05882263183594
285.0 179.0 80.0
368.0 395.0 78.4313735961914
444.0 537.0 65.09803771972656
518.0 180.0 81.17646789550781
171.0 523.0 49.80392074584961
105.0 190.0 31.37255096435547
352.0 604.0 66.66667175292969
248.0 555.0 74.50980377197266
348.0 133.0 46.66666793823242
140.0 430.0 45.882354736328125
607.0 287.0 70.98039245605469
526.0 179.0 80.78431701660156
207.0 424.0 69.4117660522461
219.0 284.0 81.17646789550781
167.0 197.0 70.98039245605469
139.0 247.0 57.254905700683594
322.0 197.0 94.50980377197266
255.0 146.0 56.4705924987793
416.0 125.0 39.2156867980957
126.0 158.0 58.431373596191406
562.0 295.0 72.94117736816406
105.0 182.0 32.94117736816406
321.0 136.0 47.843135833740234
316.0 156.0 63.13725662231445
110.0 458.0 25.490198135375977
146.0 504.0 43.52941131591797
537.0 172.0 76.07843017578125
247.0 445.0 83.13725280761719
643.0 536.0 52.156864166259766
387.0 627.0 62.352943420410156
626.0 165.0 70.19608306884766
226.0 508.0 69.01960754394531
470.0 444.0 69.01960754394531
301.0 545.0 74.50980377197266
132.0 284.0 51.76470947265625
160.0 566.0 41.568626403808594
555.0 352.0 69.80392456054688
269.0 328.0 90.19607543945312
105.0 163.0 38.82352828979492
250.0 163.0 68.23529815673828
113.0 148.0 55.29412078857422
414.0 145.0 54.11764907836914
367.0 599.0 65.88235473632812
510.0 403.0 68.62745666503906
524.0 141.0 52.156864166259766
454.0 278.0 80.0
110.0 150.0 53.725494384765625
437.0 181.0 81.96078491210938
462.0 541.0 63.13725662231445
454.0 234.0 83.92156982421875
185.0 494.0 56.4705924987793
123.0 536.0 29.803922653198242
570.0 420.0 65.09803771972656
248.0 207.0 97.64705657958984
556.0 156.0 63.13725662231445
388.0 151.0 58.431373596191406
486.0 603.0 57.254905700683594
424.0 622.0 60.39215850830078
356.0 452.0 76.47058868408203
387.0 124.0 39.2156867980957
294.0 154.0 61.56863021850586
136.0 476.0 41.960784912109375
106.0 246.0 34.11764907836914
454.0 225.0 84.70588684082031
250.0 541.0 76.07843017578125
537.0 180.0 81.5686264038086
630.0 496.0 55.29412078857422
373.0 125.0 40.39215850830078
166.0 241.0 66.66667175292969
170.0 459.0 54.11764907836914
239.0 426.0 80.39215850830078
455.0 120.0 36.86274719238281
645.0 337.0 65.49019622802734
570.0 585.0 53.333335876464844
134.0 246.0 54.90196228027344
386.0 144.0 52.94117736816406
170.0 334.0 62.352943420410156
141.0 278.0 56.078433990478516
175.0 504.0 52.94117736816406
557.0 209.0 80.0
177.0 126.0 26.666667938232422
308.0 297.0 89.80392456054688
629.0 269.0 70.98039245605469
382.0 208.0 91.37255096435547
247.0 238.0 95.29412078857422
502.0 156.0 61.960784912109375
586.0 283.0 72.94117736816406
135.0 170.0 61.17647171020508
401.0 426.0 75.29412078857422
274.0 200.0 96.86274719238281
178.0 451.0 57.64706039428711
133.0 362.0 47.45098114013672
358.0 452.0 76.47058868408203
248.0 518.0 77.64705657958984
466.0 164.0 68.23529815673828
631.0 167.0 71.76470947265625
564.0 387.0 67.05882263183594
293.0 197.0 94.50980377197266
454.0 251.0 82.35294342041016
243.0 369.0 85.49019622802734
555.0 464.0 62.74510192871094
170.0 141.0 54.11764907836914
511.0 503.0 62.74510192871094
185.0 476.0 57.64706039428711
554.0 557.0 56.4705924987793
534.0 385.0 68.62745666503906
368.0 609.0 65.09803771972656
125.0 259.0 50.58823776245117
406.0 426.0 74.90196228027344
133.0 152.0 61.960784912109375
391.0 389.0 77.2549057006836
546.0 286.0 74.50980377197266
558.0 480.0 61.17647171020508
225.0 133.0 46.66666793823242
451.0 164.0 68.23529815673828
480.0 524.0 63.529415130615234
112.0 151.0 54.50980758666992
131.0 345.0 47.843135833740234
570.0 528.0 57.64706039428711
604.0 386.0 65.09803771972656
119.0 445.0 36.078433990478516
361.0 171.0 73.33333587646484
245.0 330.0 89.4117660522461
133.0 446.0 41.960784912109375
550.0 183.0 82.74510192871094
431.0 187.0 86.2745132446289
181.0 166.0 73.72549438476562
193.0 490.0 59.21569061279297
569.0 451.0 63.13725662231445
554.0 561.0 56.078433990478516
167.0 320.0 61.960784912109375
318.0 176.0 78.03921508789062
495.0 135.0 47.45098114013672
204.0 429.0 67.8431396484375
263.0 232.0 97.2549057006836
236.0 205.0 93.72549438476562
517.0 402.0 68.23529815673828
268.0 641.0 67.8431396484375
499.0 495.0 63.92156982421875
137.0 329.0 51.37255096435547
144.0 465.0 45.09803771972656
126.0 137.0 54.90196228027344
247.0 431.0 83.13725280761719
576.0 397.0 65.88235473632812
199.0 143.0 54.50980758666992
171.0 288.0 65.09803771972656
231.0 421.0 77.64705657958984
303.0 196.0 94.11764526367188
368.0 236.0 90.19607543945312
414.0 515.0 68.62745666503906
115.0 523.0 29.803922653198242
175.0 164.0 72.15686798095703
245.0 279.0 90.98039245605469
433.0 120.0 36.47058868408203
285.0 165.0 68.62745666503906
111.0 510.0 24.3137264251709
407.0 378.0 76.86274719238281
171.0 301.0 64.31372833251953
442.0 499.0 67.8431396484375
110.0 450.0 26.666667938232422
355.0 195.0 93.72549438476562
178.0 504.0 54.11764907836914
500.0 184.0 84.31372833251953
251.0 434.0 83.92156982421875
396.0 534.0 68.62745666503906
209.0 438.0 69.4117660522461
480.0 139.0 50.196083068847656
201.0 388.0 69.01960754394531
324.0 152.0 60.000003814697266
411.0 505.0 69.80392456054688
276.0 153.0 60.78431701660156
546.0 309.0 73.72549438476562
349.0 152.0 59.21569061279297
358.0 618.0 64.31372833251953
444.0 456.0 70.5882339477539
385.0 168.0 70.98039245605469
540.0 138.0 49.411766052246094
493.0 160.0 64.70588684082031
214.0 193.0 86.66666412353516
137.0 520.0 39.2156867980957
245.0 356.0 87.45098114013672
178.0 463.0 56.86274719238281
452.0 617.0 58.03921890258789
251.0 212.0 98.82353210449219
503.0 139.0 50.58823776245117
245.0 365.0 86.66666412353516
193.0 290.0 72.54901885986328
558.0 509.0 58.82353210449219
557.0 203.0 80.78431701660156
145.0 171.0 65.09803771972656
617.0 179.0 79.21569061279297
643.0 421.0 60.78431701660156
395.0 172.0 74.11764526367188
169.0 192.0 72.15686798095703
470.0 333.0 75.686279296875
495.0 398.0 69.80392456054688
119.0 234.0 49.80392074584961
354.0 195.0 93.72549438476562
368.0 238.0 89.80392456054688
350.0 324.0 84.70588684082031
145.0 499.0 43.52941131591797
207.0 406.0 70.19608306884766
402.0 398.0 75.686279296875
408.0 166.0 68.62745666503906
312.0 153.0 60.78431701660156
413.0 505.0 69.4117660522461
127.0 242.0 52.54902267456055
213.0 363.0 74.90196228027344
187.0 144.0 56.078433990478516
655.0 365.0 48.235294342041016
246.0 396.0 84.70588684082031
246.0 609.0 69.01960754394531
107.0 290.0 35.686275482177734
499.0 522.0 62.352943420410156
216.0 181.0 83.52941131591797
204.0 160.0 67.45098114013672
131.0 241.0 54.11764907836914
121.0 530.0 31.37255096435547
246.0 566.0 72.94117736816406
465.0 385.0 72.15686798095703
570.0 348.0 69.4117660522461
496.0 160.0 64.70588684082031
377.0 172.0 74.11764526367188
251.0 398.0 85.88235473632812
219.0 393.0 74.90196228027344
217.0 305.0 78.82353210449219
327.0 123.0 39.2156867980957
209.0 214.0 83.52941131591797
200.0 160.0 67.8431396484375
379.0 154.0 60.78431701660156
554.0 528.0 58.431373596191406
193.0 294.0 72.54901885986328
242.0 517.0 75.29412078857422
282.0 198.0 95.29412078857422
251.0 429.0 83.92156982421875
209.0 140.0 51.37255096435547
548.0 202.0 81.17646789550781
166.0 226.0 68.23529815673828
596.0 484.0 59.21569061279297
643.0 408.0 61.56863021850586
201.0 496.0 61.56863021850586
444.0 540.0 65.09803771972656
262.0 385.0 87.8431396484375
445.0 131.0 44.70588302612305
262.0 398.0 86.66666412353516
137.0 289.0 53.333335876464844
193.0 143.0 54.50980758666992
351.0 479.0 75.686279296875
204.0 374.0 70.98039245605469
313.0 183.0 83.13725280761719
211.0 388.0 72.15686798095703
454.0 246.0 82.74510192871094
261.0 354.0 89.4117660522461
251.0 360.0 88.23529815673828
159.0 168.0 70.19608306884766
546.0 308.0 73.72549438476562
137.0 524.0 38.82352828979492
351.0 449.0 77.64705657958984
356.0 460.0 76.07843017578125
276.0 640.0 67.8431396484375
142.0 152.0 64.70588684082031
318.0 195.0 92.94117736816406
558.0 481.0 61.17647171020508
507.0 280.0 77.2549057006836
323.0 515.0 74.90196228027344
232.0 399.0 79.21569061279297
273.0 198.0 95.29412078857422
378.0 194.0 92.1568603515625
138.0 482.0 42.74509811401367
315.0 151.0 59.21569061279297
204.0 383.0 70.19608306884766
205.0 194.0 83.52941131591797
190.0 147.0 58.03921890258789
254.0 158.0 63.529415130615234
343.0 199.0 94.90196228027344
490.0 505.0 63.92156982421875
135.0 209.0 58.431373596191406
161.0 357.0 57.254905700683594
399.0 131.0 44.313724517822266
262.0 119.0 13.333333969116211
229.0 511.0 70.19608306884766
225.0 533.0 67.45098114013672
342.0 583.0 69.01960754394531
352.0 295.0 86.2745132446289
444.0 484.0 69.01960754394531
636.0 177.0 77.64705657958984
225.0 128.0 43.13725662231445
446.0 239.0 83.92156982421875
151.0 355.0 54.11764907836914
341.0 457.0 78.03921508789062
402.0 166.0 69.01960754394531
640.0 177.0 77.2549057006836
395.0 375.0 78.03921508789062
133.0 173.0 59.607845306396484
410.0 397.0 75.29412078857422
610.0 281.0 71.37255096435547
539.0 490.0 61.960784912109375
387.0 390.0 77.2549057006836
243.0 334.0 88.23529815673828
237.0 513.0 73.33333587646484
652.0 562.0 45.09803771972656
144.0 353.0 52.156864166259766
320.0 197.0 94.50980377197266
230.0 290.0 84.31372833251953
513.0 120.0 36.078433990478516
227.0 141.0 51.37255096435547
208.0 406.0 70.5882339477539
448.0 147.0 55.29412078857422
217.0 161.0 67.8431396484375
254.0 146.0 56.4705924987793
341.0 364.0 83.52941131591797
576.0 195.0 80.39215850830078
152.0 128.0 23.52941131591797
312.0 179.0 79.60784149169922
423.0 351.0 77.64705657958984
207.0 594.0 56.078433990478516
457.0 165.0 69.01960754394531
264.0 574.0 74.90196228027344
303.0 180.0 80.78431701660156
262.0 421.0 84.70588684082031
263.0 181.0 81.96078491210938
477.0 182.0 82.74510192871094
459.0 120.0 36.86274719238281
504.0 280.0 77.2549057006836
468.0 124.0 40.0
162.0 162.0 70.19608306884766
325.0 130.0 43.52941131591797
590.0 192.0 80.0
309.0 544.0 74.11764526367188
515.0 493.0 63.13725662231445
206.0 325.0 74.90196228027344
348.0 528.0 72.15686798095703
461.0 522.0 64.31372833251953
564.0 443.0 63.529415130615234
368.0 485.0 74.11764526367188
206.0 414.0 69.80392456054688
207.0 543.0 60.39215850830078
352.0 546.0 70.98039245605469
358.0 147.0 56.078433990478516
217.0 506.0 65.88235473632812
124.0 436.0 38.82352828979492
267.0 531.0 77.2549057006836
214.0 493.0 66.2745132446289
454.0 417.0 71.37255096435547
172.0 460.0 54.90196228027344
408.0 109.0 11.372549057006836
352.0 266.0 88.62744903564453
315.0 406.0 82.35294342041016
270.0 135.0 47.843135833740234
209.0 439.0 69.01960754394531
537.0 164.0 69.80392456054688
499.0 141.0 51.76470947265625
513.0 387.0 69.4117660522461
172.0 267.0 66.66667175292969
637.0 384.0 62.74510192871094
430.0 177.0 78.4313735961914
169.0 295.0 63.92156982421875
207.0 454.0 67.45098114013672
614.0 586.0 50.58823776245117
141.0 151.0 64.70588684082031
308.0 196.0 94.11764526367188
342.0 239.0 91.76470947265625
546.0 398.0 67.05882263183594
577.0 290.0 72.54901885986328
417.0 367.0 76.86274719238281
443.0 162.0 66.2745132446289
137.0 300.0 52.94117736816406
546.0 540.0 58.431373596191406
445.0 372.0 74.50980377197266
564.0 448.0 63.529415130615234
192.0 147.0 58.03921890258789
655.0 366.0 47.45098114013672
227.0 506.0 70.19608306884766
210.0 493.0 65.09803771972656
294.0 545.0 74.90196228027344
582.0 193.0 80.39215850830078
347.0 172.0 74.50980377197266
508.0 296.0 75.686279296875
404.0 131.0 44.313724517822266
525.0 161.0 66.66667175292969
519.0 169.0 72.94117736816406
214.0 437.0 71.37255096435547
263.0 256.0 95.68627166748047
408.0 380.0 76.47058868408203
240.0 206.0 94.90196228027344
363.0 193.0 92.1568603515625
630.0 595.0 48.6274528503418
470.0 549.0 62.352943420410156
533.0 385.0 68.62745666503906
589.0 153.0 60.78431701660156
564.0 428.0 64.70588684082031
348.0 197.0 94.11764526367188
313.0 406.0 82.35294342041016
169.0 408.0 56.86274719238281
174.0 489.0 53.333335876464844
248.0 477.0 80.78431701660156
204.0 181.0 82.35294342041016
444.0 448.0 70.98039245605469
217.0 578.0 60.78431701660156
418.0 337.0 78.82353210449219
555.0 323.0 72.15686798095703
462.0 160.0 65.09803771972656
643.0 278.0 69.01960754394531
330.0 180.0 81.17646789550781
535.0 136.0 47.45098114013672
232.0 143.0 52.94117736816406
462.0 551.0 62.352943420410156
226.0 427.0 76.47058868408203
205.0 267.0 78.03921508789062
121.0 239.0 50.196083068847656
228.0 524.0 68.23529815673828
352.0 573.0 69.01960754394531
151.0 277.0 59.21569061279297
440.0 502.0 67.8431396484375
554.0 359.0 69.4117660522461
415.0 357.0 77.64705657958984
555.0 446.0 63.92156982421875
214.0 464.0 69.01960754394531
357.0 533.0 71.37255096435547
130.0 535.0 34.11764907836914
570.0 324.0 70.98039245605469
453.0 578.0 61.56863021850586
454.0 321.0 77.2549057006836
509.0 159.0 64.31372833251953
211.0 604.0 56.078433990478516
409.0 169.0 70.98039245605469
141.0 286.0 55.686275482177734
629.0 173.0 76.07843017578125
255.0 580.0 74.50980377197266
449.0 141.0 50.58823776245117
562.0 185.0 82.35294342041016
398.0 154.0 60.39215850830078
236.0 211.0 93.33333587646484
357.0 610.0 65.49019622802734
151.0 356.0 54.11764907836914
284.0 519.0 77.64705657958984
470.0 576.0 60.39215850830078
521.0 197.0 83.52941131591797
213.0 215.0 84.70588684082031
574.0 254.0 75.29412078857422
171.0 164.0 72.15686798095703
448.0 145.0 53.725494384765625
445.0 229.0 85.09803771972656
211.0 543.0 61.56863021850586
438.0 168.0 71.37255096435547
200.0 167.0 73.33333587646484
614.0 175.0 77.64705657958984
599.0 176.0 78.82353210449219
205.0 435.0 67.8431396484375
221.0 141.0 51.37255096435547
176.0 320.0 65.49019622802734
248.0 581.0 72.54901885986328
246.0 482.0 80.0
436.0 303.0 79.21569061279297
634.0 385.0 63.13725662231445
350.0 519.0 72.54901885986328
445.0 118.0 35.29411697387695
622.0 596.0 49.411766052246094
145.0 495.0 43.92156982421875
453.0 510.0 66.2745132446289
247.0 272.0 92.1568603515625
374.0 510.0 72.15686798095703
349.0 154.0 61.17647171020508
262.0 392.0 87.05882263183594
518.0 492.0 63.13725662231445
136.0 448.0 42.74509811401367
112.0 455.0 33.72549057006836
644.0 357.0 63.92156982421875
361.0 112.0 30.58823585510254
241.0 197.0 94.11764526367188
352.0 563.0 69.80392456054688
641.0 268.0 69.80392456054688
105.0 158.0 38.431373596191406
357.0 625.0 63.92156982421875
244.0 543.0 73.72549438476562
358.0 480.0 74.90196228027344
341.0 463.0 77.64705657958984
212.0 331.0 76.47058868408203
306.0 324.0 88.23529815673828
234.0 539.0 70.19608306884766
213.0 223.0 83.92156982421875
534.0 518.0 60.78431701660156
449.0 410.0 72.15686798095703
358.0 188.0 87.8431396484375
391.0 366.0 78.82353210449219
285.0 134.0 47.05882263183594
301.0 214.0 96.86274719238281
248.0 410.0 84.70588684082031
453.0 522.0 65.09803771972656
214.0 281.0 79.60784149169922
655.0 326.0 54.90196228027344
269.0 139.0 50.98039627075195
526.0 278.0 76.47058868408203
135.0 437.0 43.52941131591797
370.0 399.0 78.03921508789062
347.0 146.0 54.90196228027344
357.0 595.0 67.05882263183594
136.0 271.0 54.11764907836914
375.0 150.0 58.03921890258789
327.0 542.0 73.33333587646484
534.0 124.0 19.60784339904785
358.0 489.0 74.11764526367188
120.0 238.0 49.80392074584961
643.0 432.0 60.000003814697266
463.0 122.0 38.431373596191406
314.0 133.0 45.490196228027344
250.0 454.0 82.74510192871094
357.0 631.0 63.92156982421875
105.0 202.0 30.19607925415039
231.0 300.0 84.31372833251953
546.0 342.0 71.37255096435547
351.0 461.0 76.86274719238281
632.0 296.0 69.01960754394531
122.0 354.0 43.92156982421875
482.0 524.0 63.529415130615234
525.0 597.0 55.29412078857422
419.0 127.0 40.7843132019043
350.0 428.0 78.82353210449219
598.0 178.0 80.0
529.0 172.0 75.686279296875
168.0 268.0 65.49019622802734
342.0 610.0 66.66667175292969
109.0 242.0 45.490196228027344
132.0 135.0 51.37255096435547
158.0 355.0 56.4705924987793
131.0 363.0 46.66666793823242
635.0 391.0 62.352943420410156
204.0 598.0 54.11764907836914
124.0 529.0 32.54901885986328
454.0 242.0 83.13725280761719
398.0 164.0 67.45098114013672
292.0 131.0 44.70588302612305
132.0 346.0 48.235294342041016
221.0 180.0 82.35294342041016
254.0 560.0 75.686279296875
174.0 454.0 56.078433990478516
284.0 167.0 70.19608306884766
465.0 351.0 74.50980377197266
542.0 156.0 63.13725662231445
640.0 188.0 76.47058868408203
213.0 355.0 75.29412078857422
192.0 591.0 50.98039627075195
217.0 541.0 63.92156982421875
204.0 376.0 70.5882339477539
184.0 577.0 50.58823776245117
141.0 303.0 54.50980758666992
602.0 510.0 56.86274719238281
178.0 511.0 53.725494384765625
285.0 153.0 60.78431701660156
113.0 334.0 41.568626403808594
525.0 401.0 67.8431396484375
422.0 142.0 51.76470947265625
320.0 524.0 74.50980377197266
350.0 310.0 85.09803771972656
462.0 194.0 87.8431396484375
446.0 118.0 35.29411697387695
194.0 406.0 66.2745132446289
418.0 114.0 32.156864166259766
293.0 173.0 74.90196228027344
186.0 584.0 50.196083068847656
524.0 597.0 55.29412078857422
134.0 265.0 53.725494384765625
370.0 143.0 52.54902267456055
195.0 502.0 59.607845306396484
140.0 262.0 56.4705924987793
326.0 132.0 44.70588302612305
625.0 178.0 78.4313735961914
342.0 226.0 92.94117736816406
132.0 285.0 51.76470947265625
250.0 351.0 89.01960754394531
137.0 158.0 63.529415130615234
599.0 588.0 51.37255096435547
293.0 408.0 83.52941131591797
243.0 343.0 87.45098114013672
638.0 390.0 62.352943420410156
541.0 287.0 74.90196228027344
470.0 375.0 72.54901885986328
579.0 284.0 73.33333587646484
391.0 367.0 78.82353210449219
173.0 254.0 68.23529815673828
544.0 607.0 52.156864166259766
465.0 358.0 74.11764526367188
139.0 245.0 57.254905700683594
136.0 261.0 54.90196228027344
246.0 497.0 78.4313735961914
548.0 246.0 77.64705657958984
607.0 157.0 64.31372833251953
639.0 175.0 76.86274719238281
454.0 202.0 87.05882263183594
185.0 372.0 64.70588684082031
166.0 251.0 65.88235473632812
246.0 401.0 84.31372833251953
507.0 134.0 46.66666793823242
349.0 146.0 54.90196228027344
184.0 372.0 64.31372833251953
610.0 393.0 63.92156982421875
472.0 229.0 83.52941131591797
252.0 413.0 85.09803771972656
459.0 523.0 64.70588684082031
654.0 379.0 39.607845306396484
233.0 318.0 85.09803771972656
170.0 438.0 55.686275482177734
108.0 340.0 27.05882453918457
186.0 180.0 78.4313735961914
208.0 142.0 52.94117736816406
289.0 299.0 90.5882339477539
470.0 449.0 69.01960754394531
197.0 129.0 43.52941131591797
634.0 391.0 62.352943420410156
228.0 426.0 76.86274719238281
584.0 512.0 57.64706039428711
179.0 574.0 49.411766052246094
570.0 319.0 71.37255096435547
522.0 165.0 69.80392456054688
291.0 528.0 76.07843017578125
553.0 596.0 52.94117736816406
351.0 185.0 85.49019622802734
215.0 335.0 77.2549057006836
616.0 158.0 55.686275482177734
171.0 403.0 58.03921890258789
565.0 504.0 58.82353210449219
377.0 382.0 78.82353210449219
386.0 110.0 8.235294342041016
316.0 307.0 88.23529815673828
118.0 237.0 49.411766052246094
126.0 435.0 39.607845306396484
392.0 169.0 71.76470947265625
284.0 529.0 76.47058868408203
241.0 417.0 81.5686264038086
471.0 600.0 58.431373596191406
365.0 167.0 70.5882339477539
430.0 143.0 52.54902267456055
409.0 117.0 34.11764907836914
265.0 625.0 70.19608306884766
553.0 180.0 81.5686264038086
352.0 245.0 90.19607543945312
267.0 311.0 90.98039245605469
187.0 185.0 78.4313735961914
232.0 323.0 84.70588684082031
185.0 286.0 70.19608306884766
612.0 387.0 64.31372833251953
111.0 502.0 24.705883026123047
357.0 553.0 70.19608306884766
217.0 494.0 67.45098114013672
189.0 297.0 70.98039245605469
591.0 601.0 49.411766052246094
445.0 323.0 77.64705657958984
595.0 155.0 61.960784912109375
169.0 127.0 31.37255096435547
603.0 287.0 71.37255096435547
405.0 129.0 42.74509811401367
154.0 148.0 61.960784912109375
198.0 380.0 68.62745666503906
351.0 518.0 72.54901885986328
265.0 160.0 65.09803771972656
239.0 512.0 74.11764526367188
383.0 173.0 74.90196228027344
209.0 297.0 76.86274719238281
352.0 621.0 64.70588684082031
445.0 213.0 86.2745132446289
168.0 385.0 57.64706039428711
329.0 422.0 80.0
251.0 485.0 80.78431701660156
184.0 494.0 56.078433990478516
240.0 629.0 63.92156982421875
234.0 320.0 85.49019622802734
135.0 348.0 49.01960754394531
146.0 364.0 52.156864166259766
135.0 317.0 50.98039627075195
107.0 302.0 34.11764907836914
176.0 288.0 67.05882263183594
358.0 623.0 63.92156982421875
320.0 182.0 82.35294342041016
570.0 434.0 63.92156982421875
469.0 188.0 87.05882263183594
234.0 214.0 92.1568603515625
301.0 196.0 94.11764526367188
610.0 498.0 56.4705924987793
619.0 297.0 69.80392456054688
361.0 149.0 56.86274719238281
246.0 488.0 79.21569061279297
310.0 153.0 60.78431701660156
218.0 501.0 67.05882263183594
655.0 313.0 57.64706039428711
387.0 112.0 32.94117736816406
459.0 550.0 62.74510192871094
217.0 526.0 64.70588684082031
380.0 190.0 89.4117660522461
244.0 195.0 93.33333587646484
434.0 133.0 45.09803771972656
656.0 175.0 23.13725471496582
401.0 507.0 70.19608306884766
470.0 475.0 67.45098114013672
465.0 361.0 73.72549438476562
554.0 539.0 57.64706039428711
357.0 413.0 78.03921508789062
554.0 386.0 67.45098114013672
211.0 582.0 58.82353210449219